<mxfile host="Electron" modified="2024-05-29T17:17:53.223Z" agent="Mozilla/5.0 (Macintosh; Intel Mac OS X 10_15_7) AppleWebKit/537.36 (KHTML, like Gecko) draw.io/24.2.5 Chrome/120.0.6099.109 Electron/28.1.0 Safari/537.36" etag="2Vr1tPsDaCtPi7dla24E" version="24.2.5" type="device">
  <diagram name="Page-1" id="5bNZ9NAgzlLmS8V8yV6H">
    <mxGraphModel dx="3731" dy="3723" grid="1" gridSize="10" guides="1" tooltips="1" connect="1" arrows="1" fold="1" page="1" pageScale="1" pageWidth="827" pageHeight="1169" math="0" shadow="0">
      <root>
        <mxCell id="0" />
        <mxCell id="1" parent="0" />
        <mxCell id="IYTzvY8dR_wKWbwKY49F-153" value="" style="group" parent="1" vertex="1" connectable="0">
          <mxGeometry x="131" y="-1150" width="565" height="1130" as="geometry" />
        </mxCell>
        <mxCell id="IYTzvY8dR_wKWbwKY49F-110" value="Data Integration Service" style="rounded=1;whiteSpace=wrap;html=1;verticalAlign=top;" parent="IYTzvY8dR_wKWbwKY49F-153" vertex="1">
          <mxGeometry x="169.99" y="1030" width="250" height="100" as="geometry" />
        </mxCell>
        <mxCell id="IYTzvY8dR_wKWbwKY49F-90" value="" style="rounded=1;whiteSpace=wrap;html=1;" parent="IYTzvY8dR_wKWbwKY49F-153" vertex="1">
          <mxGeometry x="170" y="440" width="250" height="110" as="geometry" />
        </mxCell>
        <mxCell id="IYTzvY8dR_wKWbwKY49F-76" value="Queries frontend&lt;div&gt;(ffc-sfd-queries)&lt;/div&gt;" style="rounded=1;whiteSpace=wrap;html=1;verticalAlign=top;" parent="IYTzvY8dR_wKWbwKY49F-153" vertex="1">
          <mxGeometry x="170" y="230" width="250" height="110" as="geometry" />
        </mxCell>
        <mxCell id="IYTzvY8dR_wKWbwKY49F-78" value="" style="image;aspect=fixed;html=1;points=[];align=center;fontSize=12;image=img/lib/azure2/compute/Kubernetes_Services.svg;" parent="IYTzvY8dR_wKWbwKY49F-153" vertex="1">
          <mxGeometry x="272.33000000000004" y="280" width="45.33" height="40" as="geometry" />
        </mxCell>
        <mxCell id="IYTzvY8dR_wKWbwKY49F-79" value="Internal user" style="fillColor=#DE6561;verticalLabelPosition=bottom;sketch=0;html=1;strokeColor=#ffffff;verticalAlign=top;align=center;points=[[0.145,0.145,0],[0.5,0,0],[0.855,0.145,0],[1,0.5,0],[0.855,0.855,0],[0.5,1,0],[0.145,0.855,0],[0,0.5,0]];pointerEvents=1;shape=mxgraph.cisco_safe.compositeIcon;bgIcon=ellipse;resIcon=mxgraph.cisco_safe.capability.user;" parent="IYTzvY8dR_wKWbwKY49F-153" vertex="1">
          <mxGeometry x="362.33000000000004" width="50" height="50" as="geometry" />
        </mxCell>
        <mxCell id="IYTzvY8dR_wKWbwKY49F-80" value="External user" style="fillColor=#00CC00;verticalLabelPosition=bottom;sketch=0;html=1;strokeColor=#ffffff;verticalAlign=top;align=center;points=[[0.145,0.145,0],[0.5,0,0],[0.855,0.145,0],[1,0.5,0],[0.855,0.855,0],[0.5,1,0],[0.145,0.855,0],[0,0.5,0]];pointerEvents=1;shape=mxgraph.cisco_safe.compositeIcon;bgIcon=ellipse;resIcon=mxgraph.cisco_safe.capability.user;" parent="IYTzvY8dR_wKWbwKY49F-153" vertex="1">
          <mxGeometry x="170" width="50" height="50" as="geometry" />
        </mxCell>
        <mxCell id="IYTzvY8dR_wKWbwKY49F-82" value="" style="shape=flexArrow;endArrow=classic;html=1;rounded=0;fillColor=#d5e8d4;strokeColor=#82b366;" parent="IYTzvY8dR_wKWbwKY49F-153" edge="1">
          <mxGeometry width="50" height="50" relative="1" as="geometry">
            <mxPoint x="399.07000000000005" y="80" as="sourcePoint" />
            <mxPoint x="398.83000000000004" y="220" as="targetPoint" />
          </mxGeometry>
        </mxCell>
        <mxCell id="IYTzvY8dR_wKWbwKY49F-83" value="External user&amp;nbsp;&lt;div&gt;submits query&lt;/div&gt;" style="text;html=1;align=left;verticalAlign=middle;whiteSpace=wrap;rounded=0;rotation=0;" parent="IYTzvY8dR_wKWbwKY49F-153" vertex="1">
          <mxGeometry x="205" y="130" width="80" height="30" as="geometry" />
        </mxCell>
        <mxCell id="IYTzvY8dR_wKWbwKY49F-85" value="" style="shape=flexArrow;endArrow=classic;html=1;rounded=0;fillColor=#d5e8d4;strokeColor=#82b366;" parent="IYTzvY8dR_wKWbwKY49F-153" edge="1">
          <mxGeometry width="50" height="50" relative="1" as="geometry">
            <mxPoint x="219" y="350" as="sourcePoint" />
            <mxPoint x="219" y="430" as="targetPoint" />
          </mxGeometry>
        </mxCell>
        <mxCell id="IYTzvY8dR_wKWbwKY49F-86" value="" style="shape=flexArrow;endArrow=classic;html=1;rounded=0;fillColor=#d5e8d4;strokeColor=#82b366;" parent="IYTzvY8dR_wKWbwKY49F-153" edge="1">
          <mxGeometry width="50" height="50" relative="1" as="geometry">
            <mxPoint x="370" y="350" as="sourcePoint" />
            <mxPoint x="370" y="430" as="targetPoint" />
          </mxGeometry>
        </mxCell>
        <mxCell id="IYTzvY8dR_wKWbwKY49F-87" value="Internal user submits&amp;nbsp;&lt;div&gt;response to query&lt;/div&gt;" style="text;html=1;align=center;verticalAlign=middle;whiteSpace=wrap;rounded=0;rotation=90;" parent="IYTzvY8dR_wKWbwKY49F-153" vertex="1">
          <mxGeometry x="368.83000000000004" y="130" width="130" height="30" as="geometry" />
        </mxCell>
        <mxCell id="IYTzvY8dR_wKWbwKY49F-88" value="Queries&amp;nbsp;&lt;div&gt;subscription&lt;/div&gt;" style="image;sketch=0;aspect=fixed;html=1;points=[];align=center;fontSize=12;image=img/lib/mscae/Service_Bus.svg;" parent="IYTzvY8dR_wKWbwKY49F-153" vertex="1">
          <mxGeometry x="324.9999999999999" y="470" width="30" height="30" as="geometry" />
        </mxCell>
        <mxCell id="IYTzvY8dR_wKWbwKY49F-89" value="Queries&lt;div&gt;topic&lt;/div&gt;" style="image;sketch=0;aspect=fixed;html=1;points=[];align=center;fontSize=12;image=img/lib/mscae/Service_Bus.svg;" parent="IYTzvY8dR_wKWbwKY49F-153" vertex="1">
          <mxGeometry x="235" y="470" width="30" height="30" as="geometry" />
        </mxCell>
        <mxCell id="IYTzvY8dR_wKWbwKY49F-91" value="Query published to common Service Bus topic" style="text;html=1;align=right;verticalAlign=middle;whiteSpace=wrap;rounded=0;" parent="IYTzvY8dR_wKWbwKY49F-153" vertex="1">
          <mxGeometry x="40" y="370" width="170" height="30" as="geometry" />
        </mxCell>
        <mxCell id="IYTzvY8dR_wKWbwKY49F-92" value="Response published to common Service Bus topic" style="text;html=1;align=left;verticalAlign=middle;whiteSpace=wrap;rounded=0;" parent="IYTzvY8dR_wKWbwKY49F-153" vertex="1">
          <mxGeometry x="380" y="370" width="180" height="30" as="geometry" />
        </mxCell>
        <mxCell id="IYTzvY8dR_wKWbwKY49F-130" style="edgeStyle=orthogonalEdgeStyle;rounded=0;orthogonalLoop=1;jettySize=auto;html=1;entryX=0.5;entryY=1;entryDx=0;entryDy=0;" parent="IYTzvY8dR_wKWbwKY49F-153" source="IYTzvY8dR_wKWbwKY49F-93" target="IYTzvY8dR_wKWbwKY49F-127" edge="1">
          <mxGeometry relative="1" as="geometry">
            <mxPoint y="230" as="targetPoint" />
          </mxGeometry>
        </mxCell>
        <mxCell id="IYTzvY8dR_wKWbwKY49F-93" value="Queries receiver&lt;br&gt;(ffc-sfd-customer-receiver-queries)" style="rounded=1;whiteSpace=wrap;html=1;verticalAlign=top;" parent="IYTzvY8dR_wKWbwKY49F-153" vertex="1">
          <mxGeometry x="170" y="570" width="250" height="110" as="geometry" />
        </mxCell>
        <mxCell id="IYTzvY8dR_wKWbwKY49F-94" value="" style="image;aspect=fixed;html=1;points=[];align=center;fontSize=12;image=img/lib/azure2/compute/Kubernetes_Services.svg;" parent="IYTzvY8dR_wKWbwKY49F-153" vertex="1">
          <mxGeometry x="272.33000000000004" y="620" width="45.33" height="40" as="geometry" />
        </mxCell>
        <mxCell id="IYTzvY8dR_wKWbwKY49F-95" value="Cosmos DB" style="rounded=1;whiteSpace=wrap;html=1;verticalAlign=top;" parent="IYTzvY8dR_wKWbwKY49F-153" vertex="1">
          <mxGeometry x="170" y="700" width="250" height="70" as="geometry" />
        </mxCell>
        <mxCell id="IYTzvY8dR_wKWbwKY49F-96" value="" style="image;aspect=fixed;html=1;points=[];align=center;fontSize=12;image=img/lib/azure2/databases/Azure_Cosmos_DB.svg;" parent="IYTzvY8dR_wKWbwKY49F-153" vertex="1">
          <mxGeometry x="280" y="730" width="30" height="30" as="geometry" />
        </mxCell>
        <mxCell id="IYTzvY8dR_wKWbwKY49F-97" value="Queries database&amp;nbsp;&lt;div&gt;(ffc-sfd-customer-receiver-queries)&lt;/div&gt;" style="rounded=1;whiteSpace=wrap;html=1;verticalAlign=top;" parent="IYTzvY8dR_wKWbwKY49F-153" vertex="1">
          <mxGeometry x="170" y="780" width="250" height="90" as="geometry" />
        </mxCell>
        <mxCell id="IYTzvY8dR_wKWbwKY49F-105" value="&lt;span style=&quot;color: rgba(0, 0, 0, 0); font-family: monospace; font-size: 0px; text-align: start; text-wrap: nowrap;&quot;&gt;%3CmxGraphModel%3E%3Croot%3E%3CmxCell%20id%3D%220%22%2F%3E%3CmxCell%20id%3D%221%22%20parent%3D%220%22%2F%3E%3CmxCell%20id%3D%222%22%20value%3D%22%22%20style%3D%22group%22%20vertex%3D%221%22%20connectable%3D%220%22%20parent%3D%221%22%3E%3CmxGeometry%20x%3D%2260%22%20y%3D%22-453.5%22%20width%3D%22470%22%20height%3D%22198.5%22%20as%3D%22geometry%22%2F%3E%3C%2FmxCell%3E%3CmxCell%20id%3D%223%22%20value%3D%22Queries%20database%22%20style%3D%22rounded%3D1%3BwhiteSpace%3Dwrap%3Bhtml%3D1%3BverticalAlign%3Dtop%3B%22%20vertex%3D%221%22%20parent%3D%222%22%3E%3CmxGeometry%20x%3D%22-2%22%20y%3D%2223.5%22%20width%3D%22470%22%20height%3D%2285%22%20as%3D%22geometry%22%2F%3E%3C%2FmxCell%3E%3CmxCell%20id%3D%224%22%20value%3D%22%22%20style%3D%22shape%3Dcylinder3%3BwhiteSpace%3Dwrap%3Bhtml%3D1%3BboundedLbl%3D1%3BbackgroundOutline%3D1%3Bsize%3D7%3BfillColor%3D%23fff2cc%3BstrokeColor%3D%23d6b656%3B%22%20vertex%3D%221%22%20parent%3D%222%22%3E%3CmxGeometry%20x%3D%22215.83333333333331%22%20y%3D%2253.5%22%20width%3D%2238.333333333333336%22%20height%3D%2242.5%22%20as%3D%22geometry%22%2F%3E%3C%2FmxCell%3E%3CmxCell%20id%3D%225%22%20value%3D%22Container%26lt%3Bdiv%26gt%3B(queries-container)%26lt%3B%2Fdiv%26gt%3B%22%20style%3D%22rounded%3D1%3BwhiteSpace%3Dwrap%3Bhtml%3D1%3BverticalAlign%3Dtop%3B%22%20vertex%3D%221%22%20parent%3D%222%22%3E%3CmxGeometry%20y%3D%22113.5%22%20width%3D%22230%22%20height%3D%2242.5%22%20as%3D%22geometry%22%2F%3E%3C%2FmxCell%3E%3CmxCell%20id%3D%226%22%20value%3D%22Partitions%22%20style%3D%22rounded%3D1%3BwhiteSpace%3Dwrap%3Bhtml%3D1%3BverticalAlign%3Dtop%3B%22%20vertex%3D%221%22%20parent%3D%222%22%3E%3CmxGeometry%20y%3D%22156%22%20width%3D%22230%22%20height%3D%2242.5%22%20as%3D%22geometry%22%2F%3E%3C%2FmxCell%3E%3CmxCell%20id%3D%227%22%20value%3D%22Container%26lt%3Bdiv%26gt%3B(responses-container)%26lt%3B%2Fdiv%26gt%3B%22%20style%3D%22rounded%3D1%3BwhiteSpace%3Dwrap%3Bhtml%3D1%3BverticalAlign%3Dtop%3B%22%20vertex%3D%221%22%20parent%3D%222%22%3E%3CmxGeometry%20x%3D%22238%22%20y%3D%22113.5%22%20width%3D%22230%22%20height%3D%2242.5%22%20as%3D%22geometry%22%2F%3E%3C%2FmxCell%3E%3CmxCell%20id%3D%228%22%20value%3D%22Partitions%22%20style%3D%22rounded%3D1%3BwhiteSpace%3Dwrap%3Bhtml%3D1%3BverticalAlign%3Dtop%3B%22%20vertex%3D%221%22%20parent%3D%222%22%3E%3CmxGeometry%20x%3D%22238%22%20y%3D%22156%22%20width%3D%22230%22%20height%3D%2242.5%22%20as%3D%22geometry%22%2F%3E%3C%2FmxCell%3E%3C%2Froot%3E%3C%2FmxGraphModel%3E&lt;/span&gt;" style="shape=cylinder3;whiteSpace=wrap;html=1;boundedLbl=1;backgroundOutline=1;size=7;fillColor=#fff2cc;strokeColor=#d6b656;" parent="IYTzvY8dR_wKWbwKY49F-153" vertex="1">
          <mxGeometry x="275.8233333333334" y="820" width="38.333333333333336" height="42.5" as="geometry" />
        </mxCell>
        <mxCell id="IYTzvY8dR_wKWbwKY49F-106" value="Container&lt;div&gt;(queries-container)&lt;/div&gt;" style="rounded=1;whiteSpace=wrap;html=1;verticalAlign=top;" parent="IYTzvY8dR_wKWbwKY49F-153" vertex="1">
          <mxGeometry x="170" y="870" width="250" height="42.5" as="geometry" />
        </mxCell>
        <mxCell id="IYTzvY8dR_wKWbwKY49F-107" value="Partitions" style="rounded=1;whiteSpace=wrap;html=1;verticalAlign=top;" parent="IYTzvY8dR_wKWbwKY49F-153" vertex="1">
          <mxGeometry x="170" y="912.5" width="250" height="40" as="geometry" />
        </mxCell>
        <mxCell id="IYTzvY8dR_wKWbwKY49F-108" value="Access via&amp;nbsp;&lt;span style=&quot;background-color: initial;&quot;&gt;different path to external user&lt;/span&gt;" style="text;html=1;align=center;verticalAlign=middle;whiteSpace=wrap;rounded=0;" parent="IYTzvY8dR_wKWbwKY49F-153" vertex="1">
          <mxGeometry x="422.33000000000004" y="10" width="133.5" height="30" as="geometry" />
        </mxCell>
        <mxCell id="IYTzvY8dR_wKWbwKY49F-113" style="edgeStyle=orthogonalEdgeStyle;rounded=0;orthogonalLoop=1;jettySize=auto;html=1;dashed=1;dashPattern=1 2;endArrow=none;endFill=0;" parent="IYTzvY8dR_wKWbwKY49F-153" edge="1">
          <mxGeometry relative="1" as="geometry">
            <Array as="points">
              <mxPoint x="295" y="990" />
              <mxPoint x="470" y="990" />
              <mxPoint x="470" y="734" />
            </Array>
            <mxPoint x="295" y="1030" as="sourcePoint" />
            <mxPoint x="420" y="734.3900000000001" as="targetPoint" />
          </mxGeometry>
        </mxCell>
        <mxCell id="IYTzvY8dR_wKWbwKY49F-114" value="" style="image;aspect=fixed;html=1;points=[];align=center;fontSize=12;image=img/lib/azure2/compute/Kubernetes_Services.svg;" parent="IYTzvY8dR_wKWbwKY49F-153" vertex="1">
          <mxGeometry x="272.31999999999994" y="1070" width="45.33" height="40" as="geometry" />
        </mxCell>
        <mxCell id="IYTzvY8dR_wKWbwKY49F-117" value="" style="shape=flexArrow;endArrow=classic;html=1;rounded=0;fillColor=#d5e8d4;strokeColor=#82b366;" parent="IYTzvY8dR_wKWbwKY49F-153" edge="1">
          <mxGeometry width="50" height="50" relative="1" as="geometry">
            <mxPoint x="194.74" y="80" as="sourcePoint" />
            <mxPoint x="194.5" y="220" as="targetPoint" />
          </mxGeometry>
        </mxCell>
        <mxCell id="IYTzvY8dR_wKWbwKY49F-120" style="edgeStyle=orthogonalEdgeStyle;rounded=0;orthogonalLoop=1;jettySize=auto;html=1;dashed=1;dashPattern=1 2;endArrow=none;endFill=0;entryX=1;entryY=0.5;entryDx=0;entryDy=0;exitX=1;exitY=0.5;exitDx=0;exitDy=0;" parent="IYTzvY8dR_wKWbwKY49F-153" source="IYTzvY8dR_wKWbwKY49F-110" target="IYTzvY8dR_wKWbwKY49F-76" edge="1">
          <mxGeometry relative="1" as="geometry">
            <Array as="points">
              <mxPoint x="565" y="1080" />
              <mxPoint x="565" y="285" />
            </Array>
            <mxPoint x="395" y="1118.29" as="sourcePoint" />
            <mxPoint x="450" y="290" as="targetPoint" />
          </mxGeometry>
        </mxCell>
        <mxCell id="IYTzvY8dR_wKWbwKY49F-152" value="GraphQL query to retrieve customer query data" style="edgeLabel;html=1;align=center;verticalAlign=middle;resizable=0;points=[];" parent="IYTzvY8dR_wKWbwKY49F-120" vertex="1" connectable="0">
          <mxGeometry x="0.1011" y="-1" relative="1" as="geometry">
            <mxPoint as="offset" />
          </mxGeometry>
        </mxCell>
        <mxCell id="IYTzvY8dR_wKWbwKY49F-126" value="" style="shape=flexArrow;endArrow=classic;html=1;rounded=0;fillColor=#CCFFFF;strokeColor=#48B5B5;" parent="IYTzvY8dR_wKWbwKY49F-153" edge="1">
          <mxGeometry width="50" height="50" relative="1" as="geometry">
            <mxPoint x="373.83000000000004" y="220" as="sourcePoint" />
            <mxPoint x="373.83000000000004" y="80" as="targetPoint" />
          </mxGeometry>
        </mxCell>
        <mxCell id="IYTzvY8dR_wKWbwKY49F-127" value="GOV.UK Notify" style="rounded=1;whiteSpace=wrap;html=1;verticalAlign=top;" parent="IYTzvY8dR_wKWbwKY49F-153" vertex="1">
          <mxGeometry y="255" width="90" height="60" as="geometry" />
        </mxCell>
        <mxCell id="IYTzvY8dR_wKWbwKY49F-128" value="" style="shape=image;verticalLabelPosition=bottom;labelBackgroundColor=default;verticalAlign=top;aspect=fixed;imageAspect=0;image=data:image/x-icon,AAABAAMAEBAQAAEABAAoAQAANgAAACAgAAABACAAqBAAAF4BAAAwMAAAAQAgAKglAAAGEgAAKAAAABAAAAAgAAAAAQAEAAAAAACAAAAAAAAAAAAAAAAQAAAAEAAAAAAAAABAQEAAEBAQAK+vrwCAgIAA////AL+/vwBwcHAA7+/vACAgIAAwMDAA39/fAFBQUADPz88Aj4+PAGBgYAAAAAAAAAAAAAAAAAAAAAAAACGgAAAKEgAA9VVVVVVfAAA0M33UM0MACVuNTdTY1ZAM2V5LtOWdwAAAWpRJpQAAClOQCqAJNaAJZKoFUKpLkAAAWAiAhQAAAABEFmF0AAAAAABFVAAAAAAAACMyAAAAAAAAARAAAAAAAAAAAAAAAAAAAAAAAAAAAAAAAAAAAAAAAAAAAAAAAAAAAAAAAAAAAAAAAAAAAAAAAAAAAAAAAAAAAAAAAAAAAAAAAAAAAAAoAAAAIAAAAEAAAAABACAAAAAAAAAQAAAAAAAAAAAAAAAAAAAAAAAAAAAA/wAAAP8AAAD/AAAA/wAAAP8AAAD/AAAA/wAAAP8AAAD/AAAA/wAAAP8AAAD/AAAA/wAAAP8AAAD/AAAA/wAAAP8AAAD/AAAA/wAAAP8AAAD/AAAA/wAAAP8AAAD/AAAA/wAAAP8AAAD/AAAA/wAAAP8AAAD/AAAA/wAAAP8AAAD/AAAA/wAAAP8AAAD/AAAA/wAAAP8AAAD/AAAA/wAAAP8AAAD/AAAA/wAAAP8AAAD/AAAA/wAAAP8AAAD/AAAA/wAAAP8AAAD/AAAA/wAAAP8AAAD/AAAA/wAAAP8AAAD/AAAA/wAAAP8AAAD/AAAA/wAAAP8AAAD/AAAA/wAAAP8AAAD/AAAA/wAAAP8AAAD/AAAA/wAAAP8AAAD/AAAA/wAAAP8AAAD/AAAA/wAAAP8AAAD/AAAA/wAAAP8AAAD/AAAA/wAAAP8AAAD/AAAA/wAAAP8AAAD/AAAA/wAAAP8AAAD/AAAA/wAAAP8AAAD/AAAA/wAAAP8AAAD/AAAA/wAAAP8AAAD/AAAA/wAAAP8AAAD/AAAA/wAAAP8AAAD/AAAA/wAAAP8AAAD/AAAA/wAAAP8AAAD/AAAA/wAAAP8AAAD/AAAA/wAAAP8AAAD/AAAA/wAAAP8AAAD/AAAA/wAAAP8AAAD/AAAA/wAAAP8AAAD/AAAA/wAAAP8AAAD/AAAA/wAAAP8AAAD/AAAA/wAAAP8AAAD/AAAA/wAAAP8AAAD/AAAA/wAAAP8AAAD/AAAA/wAAAP8AAAD/AAAA/wAAAP8AAAD/AAAA/wAAAP8AAAD/AAAA/wAAAP8AAAD/AAAA/wAAAP8AAAD/AAAA/wAAAP8AAAD/AAAA/wAAAP8AAAD/AAAA/wAAAP8AAAD/ICAg/4CAgP9AQED/QEBA/xAQEP8AAAD/AAAA/wAAAP8AAAD/AAAA/wAAAP8AAAD/AAAA/wAAAP8AAAD/AAAA/wAAAP8QEBD/QEBA/0BAQP+AgID/ICAg/wAAAP8AAAD/AAAA/wAAAP8AAAD/AAAA/wAAAP8AAAD/AAAA/wAAAP9gYGD/////////////////////////////////7+/v/7+/v/+/v7//v7+//7+/v/+/v7//v7+//+/v7/////////////////////////////////9gYGD/AAAA/wAAAP8AAAD/AAAA/wAAAP8AAAD/AAAA/wAAAP8AAAD/AAAA/6+vr////////////////////////////////////////////////////////////////////////////////////////////////////////////6+vr/8AAAD/AAAA/wAAAP8AAAD/AAAA/wAAAP8AAAD/AAAA/wAAAP8QEBD/7+/v/+/v7/9wcHD/gICA////////////39/f/4+Pj/+fn5//7+/v////////////7+/v/5+fn/+Pj4//39/f////////////gICA/3BwcP/v7+//7+/v/xAQEP8AAAD/AAAA/wAAAP8AAAD/AAAA/wAAAP8AAAD/AAAA/2BgYP//////QEBA/wAAAP8AAAD/v7+//6+vr/8AAAD/AAAA/yAgIP8wMDD///////////8wMDD/ICAg/wAAAP8AAAD/r6+v/7+/v/8AAAD/AAAA/0BAQP//////YGBg/wAAAP8AAAD/AAAA/wAAAP8AAAD/AAAA/wAAAP8AAAD/39/f/9/f3//Pz8//r6+v/4+Pj//v7+//j4+P/zAwMP8AAAD/39/f/zAwMP+/v7//v7+//zAwMP/f39//AAAA/0BAQP+Pj4//7+/v/4CAgP+vr6//z8/P/+/v7//f39//AAAA/wAAAP8AAAD/AAAA/wAAAP8AAAD/AAAA/2BgYP//////7+/v/5+fn/+fn5///////////////////////wAAAP///////////9/f3//f39////////////8AAAD//////////////////////5+fn/+fn5//7+/v//////9gYGD/AAAA/wAAAP8AAAD/AAAA/wAAAP8AAAD/7+/v//////+AgID/UFBQ/wAAAP+fn5///////7+/v/+AgID/QEBA/+/v7/+Pj4//39/f/9/f3/+Pj4//7+/v/0BAQP+AgID/v7+///////+fn5//AAAA/1BQUP+AgID//////+/v7/8AAAD/AAAA/wAAAP8AAAD/AAAA/wAAAP8gICD/gICA/zAwMP8AAAD/AAAA/+/v7///////cHBw/wAAAP8gICD/EBAQ/3BwcP///////////3BwcP8QEBD/ICAg/wAAAP9wcHD//////+/v7/8AAAD/AAAA/zAwMP+AgID/ICAg/wAAAP8AAAD/AAAA/wAAAP8AAAD/AAAA/wAAAP8AAAD/AAAA/wAAAP8AAAD///////////9gYGD/AAAA/wAAAP8gICD/v7+//7+/v/+/v7//v7+//yAgIP8AAAD/AAAA/2BgYP///////////wAAAP8AAAD/AAAA/wAAAP8AAAD/AAAA/wAAAP8AAAD/AAAA/wAAAP8AAAD/AAAA/wAAAP8AAAD/AAAA/wAAAP/f39//7+/v/xAQEP8AAAD/AAAA/wAAAP8AAAD/AAAA/wAAAP8AAAD/AAAA/wAAAP8AAAD/EBAQ/+/v7//f39//AAAA/wAAAP8AAAD/AAAA/wAAAP8AAAD/AAAA/wAAAP8AAAD/AAAA/wAAAP8QEBD/z8/P///////Pz8//EBAQ/0BAQP8wMDD/AAAA/wAAAP8AAAD/AAAA/wAAAP8AAAD/AAAA/wAAAP8AAAD/AAAA/wAAAP8AAAD/MDAw/0BAQP8QEBD/z8/P///////Pz8//EBAQ/wAAAP8AAAD/AAAA/wAAAP8AAAD/AAAA/0BAQP////////////////9AQED/AAAA/wAAAP8AAAD/AAAA/wAAAP8AAAD/EBAQ/2BgYP9gYGD/EBAQ/wAAAP8AAAD/AAAA/wAAAP8AAAD/AAAA/0BAQP////////////////9AQED/AAAA/wAAAP8AAAD/AAAA/wAAAP8AAAD/MDAw/////////////////zAwMP8AAAD/AAAA/wAAAP8AAAD/AAAA/wAAAP+/v7////////////+/v7//AAAA/wAAAP8AAAD/AAAA/wAAAP8AAAD/MDAw/////////////////zAwMP8AAAD/AAAA/wAAAP8AAAD/AAAA/wAAAP8AAAD/UFBQ/4CAgP9QUFD/AAAA/yAgIP+AgID/gICA/xAQEP8AAAD/AAAA//////////////////////8AAAD/AAAA/xAQEP+AgID/gICA/yAgIP8AAAD/YGBg/7+/v/9QUFD/AAAA/wAAAP8AAAD/AAAA/wAAAP8AAAD/AAAA/wAAAP8AAAD/AAAA/wAAAP8AAAD/v7+/////////////n5+f/wAAAP8AAAD/7+/v////////////7+/v/wAAAP8AAAD/n5+f////////////39/f/wAAAP8AAAD/AAAA/wAAAP8AAAD/AAAA/wAAAP8AAAD/AAAA/wAAAP8AAAD/AAAA/wAAAP8AAAD/AAAA/wAAAP////////////////+/v7//AAAA/wAAAP+fn5////////////+fn5//AAAA/wAAAP+/v7//////////////////AAAA/wAAAP8AAAD/AAAA/wAAAP8AAAD/AAAA/wAAAP8AAAD/AAAA/wAAAP8AAAD/AAAA/wAAAP8AAAD/AAAA/4+Pj////////////2BgYP8AAAD/AAAA/1BQUP///////////1BQUP8AAAD/AAAA/1BQUP///////////4+Pj/8AAAD/AAAA/wAAAP8AAAD/AAAA/wAAAP8AAAD/AAAA/wAAAP8AAAD/AAAA/wAAAP8AAAD/AAAA/wAAAP8AAAD/AAAA/yAgIP8QEBD/AAAA/wAAAP/f39//YGBg////////////YGBg/9/f3/8AAAD/AAAA/xAQEP8gICD/AAAA/wAAAP8AAAD/AAAA/wAAAP8AAAD/AAAA/wAAAP8AAAD/AAAA/wAAAP8AAAD/AAAA/wAAAP8AAAD/AAAA/wAAAP8AAAD/AAAA/wAAAP8AAAD/AAAA/////////////////////////////////wAAAP8AAAD/AAAA/wAAAP8AAAD/AAAA/wAAAP8AAAD/AAAA/wAAAP8AAAD/AAAA/wAAAP8AAAD/AAAA/wAAAP8AAAD/AAAA/wAAAP8AAAD/AAAA/wAAAP8AAAD/AAAA/wAAAP8AAAD//////8/Pz////////////8/Pz///////AAAA/wAAAP8AAAD/AAAA/wAAAP8AAAD/AAAA/wAAAP8AAAD/AAAA/wAAAP8AAAD/AAAA/wAAAP8AAAD/AAAA/wAAAP8AAAD/AAAA/wAAAP8AAAD/AAAA/wAAAP8AAAD/AAAA/wAAAP8gICD/ICAg////////////ICAg/yAgIP8AAAD/AAAA/wAAAP8AAAD/AAAA/wAAAP8AAAD/AAAA/wAAAP8AAAD/AAAA/wAAAP8AAAD/AAAA/wAAAP8AAAD/AAAA/wAAAP8AAAD/AAAA/wAAAP8AAAD/AAAA/wAAAP8AAAD/AAAA/wAAAP9wcHD///////////9wcHD/AAAA/wAAAP8AAAD/AAAA/wAAAP8AAAD/AAAA/wAAAP8AAAD/AAAA/wAAAP8AAAD/AAAA/wAAAP8AAAD/AAAA/wAAAP8AAAD/AAAA/wAAAP8AAAD/AAAA/wAAAP8AAAD/AAAA/wAAAP8AAAD/AAAA/1BQUP+AgID/gICA/1BQUP8AAAD/AAAA/wAAAP8AAAD/AAAA/wAAAP8AAAD/AAAA/wAAAP8AAAD/AAAA/wAAAP8AAAD/AAAA/wAAAP8AAAD/AAAA/wAAAP8AAAD/AAAA/wAAAP8AAAD/AAAA/wAAAP8AAAD/AAAA/wAAAP8AAAD/AAAA/wAAAP8AAAD/AAAA/wAAAP8AAAD/AAAA/wAAAP8AAAD/AAAA/wAAAP8AAAD/AAAA/wAAAP8AAAD/AAAA/wAAAP8AAAD/AAAA/wAAAP8AAAD/AAAA/wAAAP8AAAD/AAAA/wAAAP8AAAD/AAAA/wAAAP8AAAD/AAAA/wAAAP8AAAD/AAAA/wAAAP8AAAD/AAAA/wAAAP8AAAD/AAAA/wAAAP8AAAD/AAAA/wAAAP8AAAD/AAAA/wAAAP8AAAD/AAAA/wAAAP8AAAD/AAAA/wAAAP8AAAD/AAAA/wAAAP8AAAD/AAAA/wAAAP8AAAD/AAAA/wAAAP8AAAD/AAAA/wAAAP8AAAD/AAAA/wAAAP8AAAD/AAAA/wAAAP8AAAD/AAAA/wAAAP8AAAD/AAAA/wAAAP8AAAD/AAAA/wAAAP8AAAD/AAAA/wAAAAAAAAAAAAAAAAAAAAAAAAAAAAAAAAAAAAAAAAAAAAAAAAAAAAAAAAAAAAAAAAAAAAAAAAAAAAAAAAAAAAAAAAAAAAAAAAAAAAAAAAAAAAAAAAAAAAAAAAAAAAAAAAAAAAAAAAAAAAAAAAAAAAAAAAAAAAAAAAAAAAAAAAAAKAAAADAAAABgAAAAAQAgAAAAAAAAJAAAAAAAAAAAAAAAAAAAAAAAAAAAAP8AAAD/AAAA/wAAAP8AAAD/AAAA/wAAAP8AAAD/AAAA/wAAAP8AAAD/AAAA/wAAAP8AAAD/AAAA/wAAAP8AAAD/AAAA/wAAAP8AAAD/AAAA/wAAAP8AAAD/AAAA/wAAAP8AAAD/AAAA/wAAAP8AAAD/AAAA/wAAAP8AAAD/AAAA/wAAAP8AAAD/AAAA/wAAAP8AAAD/AAAA/wAAAP8AAAD/AAAA/wAAAP8AAAD/AAAA/wAAAP8AAAD/AAAA/wAAAP8AAAD/AAAA/wAAAP8AAAD/AAAA/wAAAP8AAAD/AAAA/wAAAP8AAAD/AAAA/wAAAP8AAAD/AAAA/wAAAP8AAAD/AAAA/wAAAP8AAAD/AAAA/wAAAP8AAAD/AAAA/wAAAP8AAAD/AAAA/wAAAP8AAAD/AAAA/wAAAP8AAAD/AAAA/wAAAP8AAAD/AAAA/wAAAP8AAAD/AAAA/wAAAP8AAAD/AAAA/wAAAP8AAAD/AAAA/wAAAP8AAAD/AAAA/wAAAP8AAAD/AAAA/wAAAP8AAAD/AAAA/wAAAP8AAAD/AAAA/wAAAP8AAAD/AAAA/wAAAP8AAAD/AAAA/wAAAP8AAAD/AAAA/wAAAP8AAAD/AAAA/wAAAP8AAAD/AAAA/wAAAP8AAAD/AAAA/wAAAP8AAAD/AAAA/wAAAP8AAAD/AAAA/wAAAP8AAAD/AAAA/wAAAP8AAAD/AAAA/wAAAP8AAAD/AAAA/wAAAP8AAAD/AAAA/wAAAP8AAAD/AAAA/wAAAP8AAAD/AAAA/wAAAP8AAAD/AAAA/wAAAP8AAAD/AAAA/wAAAP8AAAD/AAAA/wAAAP8AAAD/AAAA/wAAAP8AAAD/AAAA/wAAAP8AAAD/AAAA/wAAAP8AAAD/AAAA/wAAAP8AAAD/AAAA/wAAAP8AAAD/AAAA/wAAAP8AAAD/AAAA/wAAAP8AAAD/AAAA/wAAAP8AAAD/AAAA/wAAAP8AAAD/AAAA/wAAAP8AAAD/AAAA/wAAAP8AAAD/AAAA/wAAAP8AAAD/AAAA/wAAAP8AAAD/AAAA/wAAAP8AAAD/AAAA/wAAAP8AAAD/AAAA/wAAAP8AAAD/AAAA/wAAAP8AAAD/AAAA/wAAAP8AAAD/AAAA/wAAAP8AAAD/AAAA/wAAAP8AAAD/AAAA/wAAAP8AAAD/AAAA/wAAAP8AAAD/AAAA/wAAAP8AAAD/AAAA/wAAAP8AAAD/AAAA/wAAAP8AAAD/AAAA/wAAAP8AAAD/AAAA/wAAAP8AAAD/AAAA/wAAAP8AAAD/AAAA/wAAAP8AAAD/AAAA/wAAAP8AAAD/AAAA/wAAAP8AAAD/AAAA/wAAAP8AAAD/AAAA/wAAAP8AAAD/AAAA/wAAAP8AAAD/AAAA/wAAAP8AAAD/AAAA/wAAAP8AAAD/AAAA/wAAAP8AAAD/AAAA/wAAAP8AAAD/AAAA/wAAAP8AAAD/AAAA/wAAAP8AAAD/AAAA/wAAAP8AAAD/AAAA/wAAAP8AAAD/AAAA/wAAAP8AAAD/AAAA/wAAAP8AAAD/AAAA/wAAAP8AAAD/AAAA/wAAAP8AAAD/AAAA/wAAAP8AAAD/AAAA/wAAAP8AAAD/AAAA/wAAAP8AAAD/AAAA/wAAAP8AAAD/AAAA/wAAAP8AAAD/AAAA/wAAAP8AAAD/AAAA/wAAAP8AAAD/AAAA/wAAAP8AAAD/AAAA/wAAAP8AAAD/AAAA/wAAAP8AAAD/AAAA/wAAAP8AAAD/AAAA/wAAAP8AAAD/AAAA/wAAAP8AAAD/AAAA/wAAAP8AAAD/AAAA/wAAAP8AAAD/AAAA/wAAAP8AAAD/AAAA/wAAAP8AAAD/AAAA/wAAAP8AAAD/AAAA/wAAAP8AAAD/AAAA/wAAAP8AAAD/AAAA/wAAAP8AAAD/AAAA/wAAAP8AAAD/AAAA/wAAAP8AAAD/AAAA/wAAAP8AAAD/AAAA/wAAAP8AAAD/AAAA/wAAAP8AAAD/AAAA/wAAAP8AAAD/AAAA/wAAAP8AAAD/AAAA/wAAAP8AAAD/AAAA/wAAAP8AAAD/AAAA/wAAAP8AAAD/AAAA/wAAAP8AAAD/MDAw/4+Pj/+AgID/UFBQ/0BAQP8wMDD/AAAA/wAAAP8AAAD/AAAA/wAAAP8AAAD/AAAA/wAAAP8AAAD/AAAA/wAAAP8AAAD/AAAA/wAAAP8AAAD/AAAA/wAAAP8AAAD/AAAA/wAAAP8wMDD/QEBA/1BQUP+AgID/j4+P/zAwMP8AAAD/AAAA/wAAAP8AAAD/AAAA/wAAAP8AAAD/AAAA/wAAAP8AAAD/AAAA/wAAAP8AAAD/AAAA/wAAAP8AAAD/cHBw///////////////////////////////////////v7+//v7+//7+/v/+/v7//v7+//7+/v/+/v7//v7+//7+/v/+/v7//v7+//7+/v/+/v7//v7+//7+/v//v7+///////////////////////////////////////3BwcP8AAAD/AAAA/wAAAP8AAAD/AAAA/wAAAP8AAAD/AAAA/wAAAP8AAAD/AAAA/wAAAP8AAAD/AAAA/wAAAP8AAAD/r6+v/////////////////////////////////////////////////////////////////////////////////////////////////////////////////////////////////////////////////////////////////6+vr/8AAAD/AAAA/wAAAP8AAAD/AAAA/wAAAP8AAAD/AAAA/wAAAP8AAAD/AAAA/wAAAP8AAAD/AAAA/wAAAP8QEBD///////////////////////////////////////////////////////////////////////////////////////////////////////////////////////////////////////////////////////////////////////////8AAAD/AAAA/wAAAP8AAAD/AAAA/wAAAP8AAAD/AAAA/wAAAP8AAAD/AAAA/wAAAP8AAAD/AAAA/wAAAP9QUFD////////////f39//gICA/4+Pj//v7+///////////////////////8/Pz/+/v7//7+/v/////////////////////////////////+/v7/+/v7//z8/P///////////////////////v7+//j4+P/4CAgP/f39////////////9QUFD/AAAA/wAAAP8AAAD/AAAA/wAAAP8AAAD/AAAA/wAAAP8AAAD/AAAA/wAAAP8AAAD/AAAA/wAAAP+vr6///////8/Pz/8QEBD/AAAA/wAAAP9AQED///////////+vr6//ICAg/wAAAP8AAAD/AAAA/2BgYP/v7+/////////////v7+//YGBg/wAAAP8AAAD/AAAA/yAgIP+vr6////////////9AQED/AAAA/wAAAP8QEBD/z8/P//////+vr6//AAAA/wAAAP8AAAD/AAAA/wAAAP8AAAD/AAAA/wAAAP8AAAD/AAAA/wAAAP8AAAD/AAAA/yAgIP//////7+/v/xAQEP8gICD/AAAA/wAAAP8AAAD//////7+/v/8AAAD/AAAA/wAAAP8QEBD/AAAA/wAAAP9gYGD///////////9gYGD/AAAA/wAAAP8QEBD/AAAA/wAAAP8AAAD/v7+///////8AAAD/AAAA/wAAAP8gICD/EBAQ/+/v7///////ICAg/wAAAP8AAAD/AAAA/wAAAP8AAAD/AAAA/wAAAP8AAAD/AAAA/wAAAP8AAAD/AAAA/4CAgP//////n5+f/7+/v/9gYGD/z8/P/zAwMP9gYGD//////4+Pj/8AAAD/EBAQ/wAAAP9wcHD/n5+f/wAAAP8AAAD///////////8AAAD/AAAA/5+fn/9wcHD/AAAA/xAQEP8AAAD/j4+P//////9wcHD/ICAg/8/Pz/9gYGD/v7+//5+fn///////gICA/wAAAP8AAAD/AAAA/wAAAP8AAAD/AAAA/wAAAP8AAAD/AAAA/wAAAP8AAAD/EBAQ/+/v7/////////////////8QEBD//////////////////////+/v7/9gYGD/z8/P/wAAAP+AgID//////6+vr/8gICD/39/f/9/f3/8gICD/r6+v//////+AgID/AAAA/8/Pz/9gYGD/7+/v//////////////////////8QEBD/////////////////7+/v/xAQEP8AAAD/AAAA/wAAAP8AAAD/AAAA/wAAAP8AAAD/AAAA/wAAAP8AAAD/j4+P///////Pz8///////7+/v/8AAAD/v7+//////////////////////////////////wAAAP+AgID///////////////////////////////////////////+AgID/AAAA/////////////////////////////////7+/v/8AAAD/v7+////////Pz8///////4+Pj/8AAAD/AAAA/wAAAP8AAAD/AAAA/wAAAP8AAAD/AAAA/wAAAP9AQED///////////+AgID/v7+//3BwcP8AAAD/AAAA/1BQUP/v7+///////9/f3///////gICA/wAAAP+/v7///////7+/v/+Pj4////////////+Pj4//v7+///////+/v7//AAAA/4CAgP//////39/f///////v7+//UFBQ/wAAAP8AAAD/cHBw/7+/v/+AgID///////////9AQED/AAAA/wAAAP8AAAD/AAAA/wAAAP8AAAD/AAAA/wAAAP9AQED/r6+v//////+AgID/YGBg/yAgIP8AAAD/AAAA/4CAgP///////////3BwcP8AAAD/AAAA/wAAAP+vr6//QEBA/wAAAP+Pj4////////////+Pj4//AAAA/0BAQP+vr6//AAAA/wAAAP8AAAD/cHBw////////////gICA/wAAAP8AAAD/ICAg/2BgYP+AgID//////6+vr/9AQED/AAAA/wAAAP8AAAD/AAAA/wAAAP8AAAD/AAAA/wAAAP8AAAD/AAAA/yAgIP9QUFD/AAAA/wAAAP8AAAD/AAAA/+/v7////////////4CAgP8AAAD/AAAA/wAAAP8AAAD/AAAA/0BAQP//////////////////////QEBA/wAAAP8AAAD/AAAA/wAAAP8AAAD/gICA////////////7+/v/wAAAP8AAAD/AAAA/wAAAP9QUFD/ICAg/wAAAP8AAAD/AAAA/wAAAP8AAAD/AAAA/wAAAP8AAAD/AAAA/wAAAP8AAAD/AAAA/wAAAP8AAAD/AAAA/wAAAP8AAAD/AAAA/////////////////4CAgP8AAAD/AAAA/wAAAP8AAAD/MDAw/+/v7///////////////////////7+/v/zAwMP8AAAD/AAAA/wAAAP8AAAD/gICA/////////////////wAAAP8AAAD/AAAA/wAAAP8AAAD/AAAA/wAAAP8AAAD/AAAA/wAAAP8AAAD/AAAA/wAAAP8AAAD/AAAA/wAAAP8AAAD/AAAA/wAAAP8AAAD/AAAA/wAAAP8AAAD/AAAA/+/v7////////////0BAQP8AAAD/AAAA/wAAAP8AAAD/ICAg/0BAQP9AQED/QEBA/0BAQP9AQED/QEBA/yAgIP8AAAD/AAAA/wAAAP8AAAD/QEBA////////////7+/v/wAAAP8AAAD/AAAA/wAAAP8AAAD/AAAA/wAAAP8AAAD/AAAA/wAAAP8AAAD/AAAA/wAAAP8AAAD/AAAA/wAAAP8AAAD/AAAA/wAAAP8AAAD/AAAA/wAAAP8AAAD/AAAA/5+fn///////n5+f/wAAAP8AAAD/AAAA/wAAAP8AAAD/AAAA/wAAAP8AAAD/AAAA/wAAAP8AAAD/AAAA/wAAAP8AAAD/AAAA/wAAAP8AAAD/AAAA/5+fn///////n5+f/wAAAP8AAAD/AAAA/wAAAP8AAAD/AAAA/wAAAP8AAAD/AAAA/wAAAP8AAAD/AAAA/wAAAP8AAAD/AAAA/wAAAP8AAAD/AAAA/4+Pj////////////9/f3/8wMDD/AAAA/xAQEP+Pj4//AAAA/wAAAP8AAAD/AAAA/wAAAP8AAAD/AAAA/wAAAP8AAAD/AAAA/wAAAP8AAAD/AAAA/wAAAP8AAAD/AAAA/wAAAP8AAAD/AAAA/wAAAP+Pj4//EBAQ/wAAAP8wMDD/z8/P////////////j4+P/wAAAP8AAAD/AAAA/wAAAP8AAAD/AAAA/wAAAP8AAAD/AAAA/wAAAP8AAAD/QEBA///////////////////////Pz8//AAAA/wAAAP8AAAD/AAAA/wAAAP8AAAD/AAAA/wAAAP8AAAD/AAAA/wAAAP8AAAD/AAAA/wAAAP8AAAD/AAAA/wAAAP8AAAD/AAAA/wAAAP8AAAD/AAAA/wAAAP8AAAD/AAAA/wAAAP+/v7///////////////////////0BAQP8AAAD/AAAA/wAAAP8AAAD/AAAA/wAAAP8AAAD/AAAA/wAAAP8AAAD/gICA////////////////////////////AAAA/wAAAP8AAAD/AAAA/wAAAP8AAAD/AAAA/wAAAP8AAAD/AAAA/wAAAP9AQED/gICA/4CAgP9AQED/AAAA/wAAAP8AAAD/AAAA/wAAAP8AAAD/AAAA/wAAAP8AAAD/AAAA/wAAAP///////////////////////////4CAgP8AAAD/AAAA/wAAAP8AAAD/AAAA/wAAAP8AAAD/AAAA/wAAAP8AAAD/YGBg///////////////////////f39//AAAA/wAAAP8AAAD/AAAA/wAAAP8AAAD/AAAA/wAAAP8AAAD/AAAA/2BgYP//////////////////////YGBg/wAAAP8AAAD/AAAA/wAAAP8AAAD/AAAA/wAAAP8AAAD/AAAA/wAAAP/f39///////////////////////2BgYP8AAAD/AAAA/wAAAP8AAAD/AAAA/wAAAP8AAAD/AAAA/wAAAP8AAAD/AAAA/8/Pz/////////////////9QUFD/AAAA/wAAAP8AAAD/AAAA/wAAAP8AAAD/AAAA/wAAAP8AAAD/AAAA/+/v7///////////////////////7+/v/wAAAP8AAAD/AAAA/wAAAP8AAAD/AAAA/wAAAP8AAAD/AAAA/wAAAP9gYGD/////////////////z8/P/xAQEP8AAAD/AAAA/wAAAP8AAAD/AAAA/wAAAP8AAAD/AAAA/wAAAP8AAAD/AAAA/wAAAP9AQED/QEBA/yAgIP8AAAD/AAAA/wAAAP+AgID/v7+//7+/v/9QUFD/AAAA/wAAAP8AAAD/AAAA/////////////////////////////////wAAAP8AAAD/AAAA/wAAAP9QUFD/v7+//7+/v/+AgID/AAAA/wAAAP8AAAD/ICAg/3BwcP9QUFD/AAAA/wAAAP8AAAD/AAAA/wAAAP8AAAD/AAAA/wAAAP8AAAD/AAAA/wAAAP8AAAD/AAAA/wAAAP8AAAD/AAAA/wAAAP8AAAD/AAAA/4CAgP//////////////////////QEBA/wAAAP8AAAD/AAAA/+/v7///////////////////////7+/v/wAAAP8AAAD/AAAA/0BAQP//////////////////////gICA/wAAAP8AAAD/AAAA/wAAAP8AAAD/AAAA/wAAAP8AAAD/AAAA/wAAAP8AAAD/AAAA/wAAAP8AAAD/AAAA/wAAAP8AAAD/AAAA/wAAAP8AAAD/AAAA/wAAAP8AAAD/AAAA/7+/v///////////////////////n5+f/wAAAP8AAAD/AAAA/5+fn///////////////////////n5+f/wAAAP8AAAD/AAAA/4CAgP//////////////////////39/f/wAAAP8AAAD/AAAA/wAAAP8AAAD/AAAA/wAAAP8AAAD/AAAA/wAAAP8AAAD/AAAA/wAAAP8AAAD/AAAA/wAAAP8AAAD/AAAA/wAAAP8AAAD/AAAA/wAAAP8AAAD/AAAA/7+/v///////////////////////j4+P/wAAAP8AAAD/AAAA/1BQUP//////////////////////UFBQ/wAAAP8AAAD/AAAA/4CAgP//////////////////////z8/P/wAAAP8AAAD/AAAA/wAAAP8AAAD/AAAA/wAAAP8AAAD/AAAA/wAAAP8AAAD/AAAA/wAAAP8AAAD/AAAA/wAAAP8AAAD/AAAA/wAAAP8AAAD/AAAA/wAAAP8AAAD/AAAA/1BQUP//////////////////////MDAw/wAAAP8AAAD/AAAA/wAAAP/v7+/////////////v7+//AAAA/wAAAP8AAAD/AAAA/yAgIP/v7+//////////////////cHBw/wAAAP8AAAD/AAAA/wAAAP8AAAD/AAAA/wAAAP8AAAD/AAAA/wAAAP8AAAD/AAAA/wAAAP8AAAD/AAAA/wAAAP8AAAD/AAAA/wAAAP8AAAD/AAAA/wAAAP8AAAD/AAAA/wAAAP9QUFD/r6+v/5+fn/9AQED/AAAA/wAAAP9AQED/ICAg/wAAAP+fn5////////////+fn5//AAAA/yAgIP9AQED/AAAA/wAAAP8wMDD/n5+f/6+vr/9QUFD/AAAA/wAAAP8AAAD/AAAA/wAAAP8AAAD/AAAA/wAAAP8AAAD/AAAA/wAAAP8AAAD/AAAA/wAAAP8AAAD/AAAA/wAAAP8AAAD/AAAA/wAAAP8AAAD/AAAA/wAAAP8AAAD/AAAA/wAAAP8AAAD/AAAA/wAAAP8AAAD/AAAA/wAAAP+AgID//////5+fn/9wcHD///////////9wcHD/n5+f//////+AgID/AAAA/wAAAP8AAAD/AAAA/wAAAP8AAAD/AAAA/wAAAP8AAAD/AAAA/wAAAP8AAAD/AAAA/wAAAP8AAAD/AAAA/wAAAP8AAAD/AAAA/wAAAP8AAAD/AAAA/wAAAP8AAAD/AAAA/wAAAP8AAAD/AAAA/wAAAP8AAAD/AAAA/wAAAP8AAAD/AAAA/wAAAP8AAAD/AAAA/wAAAP+AgID///////////////////////////////////////////+AgID/AAAA/wAAAP8AAAD/AAAA/wAAAP8AAAD/AAAA/wAAAP8AAAD/AAAA/wAAAP8AAAD/AAAA/wAAAP8AAAD/AAAA/wAAAP8AAAD/AAAA/wAAAP8AAAD/AAAA/wAAAP8AAAD/AAAA/wAAAP8AAAD/AAAA/wAAAP8AAAD/AAAA/wAAAP8AAAD/AAAA/wAAAP8AAAD/AAAA/wAAAP+AgID///////////////////////////////////////////+AgID/AAAA/wAAAP8AAAD/AAAA/wAAAP8AAAD/AAAA/wAAAP8AAAD/AAAA/wAAAP8AAAD/AAAA/wAAAP8AAAD/AAAA/wAAAP8AAAD/AAAA/wAAAP8AAAD/AAAA/wAAAP8AAAD/AAAA/wAAAP8AAAD/AAAA/wAAAP8AAAD/AAAA/wAAAP8AAAD/AAAA/wAAAP8AAAD/AAAA/wAAAP+AgID//////6+vr/+fn5////////////+fn5//r6+v//////+AgID/AAAA/wAAAP8AAAD/AAAA/wAAAP8AAAD/AAAA/wAAAP8AAAD/AAAA/wAAAP8AAAD/AAAA/wAAAP8AAAD/AAAA/wAAAP8AAAD/AAAA/wAAAP8AAAD/AAAA/wAAAP8AAAD/AAAA/wAAAP8AAAD/AAAA/wAAAP8AAAD/AAAA/wAAAP8AAAD/AAAA/wAAAP8AAAD/AAAA/wAAAP8gICD/EBAQ/wAAAP9wcHD///////////9wcHD/AAAA/xAQEP8gICD/AAAA/wAAAP8AAAD/AAAA/wAAAP8AAAD/AAAA/wAAAP8AAAD/AAAA/wAAAP8AAAD/AAAA/wAAAP8AAAD/AAAA/wAAAP8AAAD/AAAA/wAAAP8AAAD/AAAA/wAAAP8AAAD/AAAA/wAAAP8AAAD/AAAA/wAAAP8AAAD/AAAA/wAAAP8AAAD/AAAA/wAAAP8AAAD/AAAA/wAAAP8AAAD/AAAA/wAAAP/Pz8/////////////Pz8//AAAA/wAAAP8AAAD/AAAA/wAAAP8AAAD/AAAA/wAAAP8AAAD/AAAA/wAAAP8AAAD/AAAA/wAAAP8AAAD/AAAA/wAAAP8AAAD/AAAA/wAAAP8AAAD/AAAA/wAAAP8AAAD/AAAA/wAAAP8AAAD/AAAA/wAAAP8AAAD/AAAA/wAAAP8AAAD/AAAA/wAAAP8AAAD/AAAA/wAAAP8AAAD/AAAA/wAAAP8AAAD/AAAA/yAgIP//////////////////////ICAg/wAAAP8AAAD/AAAA/wAAAP8AAAD/AAAA/wAAAP8AAAD/AAAA/wAAAP8AAAD/AAAA/wAAAP8AAAD/AAAA/wAAAP8AAAD/AAAA/wAAAP8AAAD/AAAA/wAAAP8AAAD/AAAA/wAAAP8AAAD/AAAA/wAAAP8AAAD/AAAA/wAAAP8AAAD/AAAA/wAAAP8AAAD/AAAA/wAAAP8AAAD/AAAA/wAAAP8AAAD/AAAA/1BQUP+/v7//v7+//7+/v/+/v7//UFBQ/wAAAP8AAAD/AAAA/wAAAP8AAAD/AAAA/wAAAP8AAAD/AAAA/wAAAP8AAAD/AAAA/wAAAP8AAAD/AAAA/wAAAP8AAAD/AAAA/wAAAP8AAAD/AAAA/wAAAP8AAAD/AAAA/wAAAP8AAAD/AAAA/wAAAP8AAAD/AAAA/wAAAP8AAAD/AAAA/wAAAP8AAAD/AAAA/wAAAP8AAAD/AAAA/wAAAP8AAAD/AAAA/wAAAP8AAAD/AAAA/wAAAP8AAAD/AAAA/wAAAP8AAAD/AAAA/wAAAP8AAAD/AAAA/wAAAP8AAAD/AAAA/wAAAP8AAAD/AAAA/wAAAP8AAAD/AAAA/wAAAP8AAAD/AAAA/wAAAP8AAAD/AAAA/wAAAP8AAAD/AAAA/wAAAP8AAAD/AAAA/wAAAP8AAAD/AAAA/wAAAP8AAAD/AAAA/wAAAP8AAAD/AAAA/wAAAP8AAAD/AAAA/wAAAP8AAAD/AAAA/wAAAP8AAAD/AAAA/wAAAP8AAAD/AAAA/wAAAP8AAAD/AAAA/wAAAP8AAAD/AAAA/wAAAP8AAAD/AAAA/wAAAP8AAAD/AAAA/wAAAP8AAAD/AAAA/wAAAP8AAAD/AAAA/wAAAP8AAAD/AAAA/wAAAP8AAAD/AAAA/wAAAP8AAAD/AAAA/wAAAP8AAAD/AAAA/wAAAP8AAAD/AAAA/wAAAP8AAAD/AAAA/wAAAP8AAAD/AAAA/wAAAP8AAAD/AAAA/wAAAP8AAAD/AAAA/wAAAP8AAAD/AAAA/wAAAP8AAAD/AAAA/wAAAP8AAAD/AAAA/wAAAP8AAAD/AAAA/wAAAP8AAAD/AAAA/wAAAP8AAAD/AAAA/wAAAP8AAAD/AAAA/wAAAP8AAAD/AAAA/wAAAP8AAAD/AAAA/wAAAP8AAAD/AAAA/wAAAP8AAAD/AAAA/wAAAP8AAAD/AAAA/wAAAP8AAAD/AAAA/wAAAP8AAAD/AAAA/wAAAP8AAAD/AAAA/wAAAP8AAAD/AAAA/wAAAP8AAAD/AAAA/wAAAP8AAAD/AAAA/wAAAP8AAAD/AAAA/wAAAP8AAAD/AAAA/wAAAP8AAAD/AAAA/wAAAP8AAAD/AAAA/wAAAP8AAAD/AAAA/wAAAP8AAAD/AAAA/wAAAP8AAAD/AAAA/wAAAP8AAAD/AAAA/wAAAP8AAAD/AAAA/wAAAP8AAAD/AAAA/wAAAP8AAAD/AAAA/wAAAP8AAAD/AAAA/wAAAP8AAAD/AAAA/wAAAP8AAAD/AAAA/wAAAP8AAAD/AAAA/wAAAP8AAAD/AAAA/wAAAP8AAAD/AAAA/wAAAP8AAAD/AAAA/wAAAP8AAAD/AAAA/wAAAP8AAAD/AAAA/wAAAP8AAAD/AAAA/wAAAP8AAAD/AAAA/wAAAAAAAAAAAAAAAAAAAAAAAAAAAAAAAAAAAAAAAAAAAAAAAAAAAAAAAAAAAAAAAAAAAAAAAAAAAAAAAAAAAAAAAAAAAAAAAAAAAAAAAAAAAAAAAAAAAAAAAAAAAAAAAAAAAAAAAAAAAAAAAAAAAAAAAAAAAAAAAAAAAAAAAAAAAAAAAAAAAAAAAAAAAAAAAAAAAAAAAAAAAAAAAAAAAAAAAAAAAAAAAAAAAAAAAAAAAAAAAAAAAAAAAAAAAAAAAAAAAAAAAAAAAAAAAAAAAAAAAAAAAAAAAAAAAAAAAAAAAAAAAAAAAAAAAAAAAAAAAAAAAAAAAAAAAAAAAAAAAAAAAAAAAAAAAAAAAAAAAAAAAAAAAAAAAAAAAAAAAAAAAAAAAAAAAAAAAAAAAAAAAAAAAAAAAAAAAAAAAAAAAAAAAAAAAAAAAAAAAAAAAAAAAAAAAAAAAAAAAAAAAAAAAAAAAAAAAAAAAAAAAAAAAAAAAAAAAAAAAAAAAAAAAAAAAA==;" parent="IYTzvY8dR_wKWbwKY49F-153" vertex="1">
          <mxGeometry x="30" y="278.23" width="30" height="30" as="geometry" />
        </mxCell>
        <mxCell id="IYTzvY8dR_wKWbwKY49F-133" style="edgeStyle=orthogonalEdgeStyle;rounded=0;orthogonalLoop=1;jettySize=auto;html=1;exitX=0.5;exitY=0;exitDx=0;exitDy=0;entryX=0;entryY=0.5;entryDx=0;entryDy=0;entryPerimeter=0;" parent="IYTzvY8dR_wKWbwKY49F-153" source="IYTzvY8dR_wKWbwKY49F-127" target="IYTzvY8dR_wKWbwKY49F-80" edge="1">
          <mxGeometry relative="1" as="geometry" />
        </mxCell>
        <mxCell id="IYTzvY8dR_wKWbwKY49F-136" value="External user is notified that there&lt;div&gt;is a response to their query&lt;/div&gt;" style="edgeLabel;html=1;align=center;verticalAlign=middle;resizable=0;points=[];" parent="IYTzvY8dR_wKWbwKY49F-133" vertex="1" connectable="0">
          <mxGeometry x="-0.4044" y="-1" relative="1" as="geometry">
            <mxPoint as="offset" />
          </mxGeometry>
        </mxCell>
        <mxCell id="IYTzvY8dR_wKWbwKY49F-134" value="Internal user can view external user&#39;s queries" style="text;html=1;align=center;verticalAlign=middle;whiteSpace=wrap;rounded=0;rotation=-90;" parent="IYTzvY8dR_wKWbwKY49F-153" vertex="1">
          <mxGeometry x="275.83000000000004" y="140" width="130" height="30" as="geometry" />
        </mxCell>
        <mxCell id="IYTzvY8dR_wKWbwKY49F-148" value="" style="group" parent="IYTzvY8dR_wKWbwKY49F-153" vertex="1" connectable="0">
          <mxGeometry x="337.73" y="1060" width="68.08999999999992" height="60" as="geometry" />
        </mxCell>
        <mxCell id="IYTzvY8dR_wKWbwKY49F-142" value="" style="rounded=0;whiteSpace=wrap;html=1;" parent="IYTzvY8dR_wKWbwKY49F-148" vertex="1">
          <mxGeometry width="68.09" height="60" as="geometry" />
        </mxCell>
        <mxCell id="IYTzvY8dR_wKWbwKY49F-145" value="" style="group" parent="IYTzvY8dR_wKWbwKY49F-148" vertex="1" connectable="0">
          <mxGeometry x="19.049999999999955" y="10" width="30" height="30" as="geometry" />
        </mxCell>
        <mxCell id="IYTzvY8dR_wKWbwKY49F-144" value="&lt;div&gt;&lt;br&gt;&lt;/div&gt;&lt;div&gt;&lt;br&gt;&lt;/div&gt;&lt;div&gt;&lt;br&gt;&lt;/div&gt;GraphQL" style="ellipse;whiteSpace=wrap;html=1;aspect=fixed;fillColor=#000000;" parent="IYTzvY8dR_wKWbwKY49F-145" vertex="1">
          <mxGeometry width="30" height="30" as="geometry" />
        </mxCell>
        <mxCell id="IYTzvY8dR_wKWbwKY49F-143" value="" style="shape=image;verticalLabelPosition=bottom;labelBackgroundColor=default;verticalAlign=top;aspect=fixed;imageAspect=0;image=https://upload.wikimedia.org/wikipedia/commons/thumb/1/17/GraphQL_Logo.svg/2048px-GraphQL_Logo.svg.png;" parent="IYTzvY8dR_wKWbwKY49F-145" vertex="1">
          <mxGeometry x="5" y="5" width="20" height="20" as="geometry" />
        </mxCell>
      </root>
    </mxGraphModel>
  </diagram>
</mxfile>
